<svg xmlns="http://www.w3.org/2000/svg" viewBox="0 0 402 402"><defs><style>.cls-1{fill:none;stroke:#ee4036;stroke-miterlimit:10;stroke-width:2px;}</style></defs><title>Asset 2</title><g id="Layer_2" data-name="Layer 2"><g id="pages"><path d="M287.13,228.48H117.22a11.94,11.94,0,0,1-11.92-11.93V117.77a11.93,11.93,0,0,1,11.92-11.91h169.9A11.93,11.93,0,0,1,299,117.77v98.79A11.94,11.94,0,0,1,287.13,228.48ZM117.22,109.77a8,8,0,0,0-8,8v98.79a8,8,0,0,0,8,8h169.9a8,8,0,0,0,8-8V117.77a8,8,0,0,0-8-8Z"/><path d="M288.19,218.11h-172a1,1,0,0,1-1-1V117.2a1,1,0,0,1,1-1h172a1,1,0,0,1,1,1v99.93A1,1,0,0,1,288.19,218.11Zm-171.06-2H287.22v-98H117.14v98Z"/><path d="M320.61,286.18H83.4c-6.29,0-10.66-1.5-12-4.13a4,4,0,0,1,.56-4.42l34.61-46.2c2.61-3.48,9.23-6.21,15.06-6.21H282.33c5.84,0,12.46,2.73,15.07,6.21L332,277.62a4.05,4.05,0,0,1,.57,4.42C330.71,285.77,323.58,286.18,320.61,286.18Zm-199-57.05c-4.58,0-10,2.13-11.93,4.64L75.11,280a1,1,0,0,0-.19.36c.18.47,2.62,1.95,8.48,1.95H320.61c5.85,0,8.29-1.47,8.48-2h0s-.05-.12-.2-.32l-34.61-46.19c-1.88-2.52-7.35-4.64-11.93-4.64H121.65Z"/><path d="M224.78,205H179.56a1,1,0,0,1,0-2h45.22a1,1,0,0,1,0,2Z"/><path d="M201.8,179.24a1,1,0,0,1,1,1v16.92a1,1,0,0,1-2,0V180.22A1,1,0,0,1,201.8,179.24Z"/><path d="M201.8,179.24a1,1,0,0,1,.69.29l5.62,5.63a1,1,0,1,1-1.38,1.38l-4.94-4.94-5,4.94a1,1,0,0,1-1.38-1.38l5.64-5.63A1,1,0,0,1,201.8,179.24Z"/><path d="M309.18,265.48H96a1,1,0,0,1-.81-1.53l19.44-28.54a1,1,0,0,1,.81-.43H289.82a1,1,0,0,1,.81.43L310,264a1,1,0,0,1,.05,1A1,1,0,0,1,309.18,265.48Zm-211.29-2H307.33l-18-26.58H116Z"/><path d="M216.32,176.87a2,2,0,0,1-1.48-.68c-.17-.19-4.46-4.91-13-4.91s-12.87,4.72-13,4.92a2,2,0,0,1-2.95-2.56c.22-.25,5.54-6.27,16-6.27s15.77,6,16,6.27a2,2,0,0,1-1.48,3.23Z"/><path d="M222.37,169.61a2,2,0,0,1-1.46-.66c-.16-.18-6.52-6.95-19.11-6.95s-19,6.77-19.11,7a2,2,0,0,1-2.92-2.6c.3-.34,7.6-8.26,22-8.26s21.73,7.92,22,8.26a2,2,0,0,1-1.46,3.25Z"/><path d="M228.42,162.35a2,2,0,0,1-1.45-.64c-.15-.16-8.58-9-25.17-9s-25,8.81-25.18,9a2,2,0,0,1-2.89-2.63c.38-.42,9.67-10.26,28.07-10.26s27.68,9.84,28.07,10.26a2,2,0,0,1-.14,2.76A2,2,0,0,1,228.42,162.35Z"/><path d="M234.47,155.09a2,2,0,0,1-1.43-.63c-.14-.14-10.66-11-31.24-11s-31.11,10.87-31.24,11a2,2,0,0,1-2.87-2.66c.47-.5,11.73-12.26,34.11-12.26s33.63,11.76,34.1,12.26a2,2,0,0,1-.11,2.76A2,2,0,0,1,234.47,155.09Z"/><path d="M240.52,147.83a2,2,0,0,1-1.42-.61c-.12-.13-12.72-13-37.3-13s-37.19,12.91-37.31,13a2,2,0,0,1-2.84-2.69c.55-.58,13.79-14.26,40.15-14.26s39.59,13.68,40.14,14.26a2,2,0,0,1-1.42,3.29Z"/><path d="M320.61,294.72H83.4c-3.16,0-8.83-.41-11.29-3.14A4,4,0,0,1,71,288.43v-7.83a3.48,3.48,0,0,1,0-.57v-.11a2,2,0,0,1,3.49-1.24,2,2,0,0,1,.42,1.58v.07c.25.51,2.71,1.94,8.47,1.94H320.61c5.61,0,8.08-1.36,8.44-1.92v-.19a2,2,0,0,1,.42-1.47,2,2,0,0,1,3.49,1.16,3.7,3.7,0,0,1,0,.93v7.87a3.77,3.77,0,0,1-1.05,2.91C329.47,294.31,323.78,294.72,320.61,294.72ZM74.93,284.87v3.77c.16.7,2.57,2.17,8.47,2.17H320.61c5.83,0,8.27-1.46,8.46-2v-4a23.17,23.17,0,0,1-8.45,1.31H83.4A23.3,23.3,0,0,1,74.93,284.87Z"/><rect class="cls-1" x="1" y="1" width="400" height="400"/></g></g></svg>