<svg xmlns="http://www.w3.org/2000/svg" viewBox="0 0 186.23 170"><defs><style>.cls-1{fill:#d7e0e5;}.cls-2{font-size:22px;font-family:Roboto-Regular, Roboto Regular;}.cls-3{letter-spacing:0em;}.cls-4{letter-spacing:0em;}</style></defs><title>Asset 9</title><g id="Layer_2" data-name="Layer 2"><g id="pages"><path class="cls-1" d="M73.36,127.44A9.62,9.62,0,0,0,91.83,122L80,81.76a9.57,9.57,0,0,0-4.52-5.67c-.59.39-1.21.76-1.85,1.12-6.3,3.46-14.73,5.59-26.51,6.71-.24,0-.48,0-.72,0a7.7,7.7,0,0,1-.71-15.36c7.17-.66,13.18-1.85,17.37-3.43l.95-.38L67,50.44a28.72,28.72,0,0,1,3,4.62,15.12,15.12,0,0,1,.85,2,8.34,8.34,0,0,1,.48,2.59,5.11,5.11,0,0,1,0,.64h0a4.18,4.18,0,0,1-.87,2.05c-.83,1.12-2.76,2.73-6.71,4.22s-9.75,2.79-17.77,3.53a6.16,6.16,0,0,0,.57,12.29l.57,0c11.69-1.11,19.9-3.22,25.91-6.52a22.73,22.73,0,0,0,7.26-6.06,16.57,16.57,0,0,0,3.25-7.86h0a17.57,17.57,0,0,0,.14-2.24,19.55,19.55,0,0,0-.34-3.47A25.81,25.81,0,0,0,80.65,49a50.25,50.25,0,0,0-8.52-11.33c-1.67-1.71-3.12-3-4-3.81a5.92,5.92,0,0,0-3.42-2.06l-1.45-.3a18.78,18.78,0,0,1-12.35,4.67,19,19,0,0,1-3.78-.38,18.72,18.72,0,0,1-12-8.07,19.25,19.25,0,0,1-1.13-2l-.26,0a29.62,29.62,0,0,0-18.41,8A41.76,41.76,0,0,0,4.49,50.65C1.7,58.26,0,68,0,80.41q0,2.95.13,6.11a6.16,6.16,0,0,0,6.15,5.9h.26A6.16,6.16,0,0,0,12.43,86q-.12-2.91-.12-5.59c0-11.33,1.56-19.59,3.74-25.53,2.83-7.61,6.49-11.5,9.78-13.74C22.72,53.76,18,74.08,18,82.08a6.11,6.11,0,0,0,.09,1.06v77.34a9.51,9.51,0,0,0,19,0v-61A9.61,9.61,0,0,0,48.34,103l16.12-5.93Z"/><rect class="cls-1" x="54.06" y="138.46" width="56.43" height="31.42"/><circle class="cls-1" cx="50.86" cy="17.32" r="17.32" transform="translate(23.73 63.69) rotate(-78.49)"/><text class="cls-2" transform="translate(31.93 85.98)">N<tspan class="cls-3" x="14.48" y="0">A</tspan><tspan x="27.85" y="0">ME SURN</tspan><tspan class="cls-4" x="112.42" y="0">A</tspan><tspan x="125.79" y="0">ME</tspan></text></g></g></svg>