<svg xmlns="http://www.w3.org/2000/svg" viewBox="0 0 186.27 170"><defs><style>.cls-1{fill:#d7e0e5;}.cls-2{font-size:22px;font-family:Roboto-Regular, Roboto Regular;}.cls-3{letter-spacing:0em;}.cls-4{letter-spacing:0em;}</style></defs><title>Asset 10</title><g id="Layer_2" data-name="Layer 2"><g id="pages"><path class="cls-1" d="M81,22.52A5.73,5.73,0,0,0,76.08,29a83.48,83.48,0,0,1,.83,10.68,21.8,21.8,0,0,1-.68,6.23,8.63,8.63,0,0,1-1.17-.64A30.55,30.55,0,0,1,70,41c-.73-.73-1.33-1.39-1.74-1.86l-.47-.54-.11-.13,0,0a5.72,5.72,0,0,0-5-2.06,5.59,5.59,0,0,0-.73-.05H34.25a5.61,5.61,0,0,0-.73.05,5.73,5.73,0,0,0-5,2.06l0,.06a45.16,45.16,0,0,1-4.54,4.6,21.36,21.36,0,0,1-3.3,2.41c-.24.13-.47.25-.67.34a21.22,21.22,0,0,1-.68-6.22A82.91,82.91,0,0,1,20.11,29,5.73,5.73,0,0,0,8.74,27.45a94.32,94.32,0,0,0-.93,12.19c0,5.13.58,9,2.29,12.28a10.9,10.9,0,0,0,3.8,4.21,9.84,9.84,0,0,0,5.2,1.49h.07a15,15,0,0,0,7.47-2.32c.72-.43,1.41-.88,2.07-1.36v107.2a8.86,8.86,0,0,0,17.72,0V96.44h3.32v64.7a8.86,8.86,0,0,0,17.72,0V53.93c.66.47,1.34.94,2.07,1.36A14.94,14.94,0,0,0,77,57.61h.07a9.85,9.85,0,0,0,5.2-1.49,12.07,12.07,0,0,0,4.87-6.81,32.35,32.35,0,0,0,1.21-9.68,94.29,94.29,0,0,0-.93-12.18A5.73,5.73,0,0,0,81,22.52Z"/><circle class="cls-1" cx="48.1" cy="16.13" r="16.13"/><path class="cls-1" d="M6.72,20.66c.2-.13.31-.17.3-.18a.72.72,0,1,0-.61-1.3h0a5.15,5.15,0,0,0-2.89,4.38,6,6,0,0,0,.76,2.8.72.72,0,1,0,1.27-.67A4.59,4.59,0,0,1,5,23.57a3.21,3.21,0,0,1,1-2.32A4.6,4.6,0,0,1,6.72,20.66Z"/><path class="cls-1" d="M2.3,27.83a.72.72,0,0,0,.27-1,7.44,7.44,0,0,1-1.13-3.72A5.45,5.45,0,0,1,3,19.39a7.22,7.22,0,0,1,1.09-1c.3-.21.47-.3.47-.3a.72.72,0,0,0-.68-1.26h0A7.59,7.59,0,0,0,0,23.13a8.9,8.9,0,0,0,1.32,4.43.72.72,0,0,0,.62.36A.71.71,0,0,0,2.3,27.83Z"/><path class="cls-1" d="M18.14,20.42a.72.72,0,0,0,.65.78,3.68,3.68,0,0,1,3,1.58,4,4,0,0,1,.56,2.12,3.51,3.51,0,0,1,0,.38.72.72,0,0,0,.61.81h.1a.72.72,0,0,0,.71-.62,4.54,4.54,0,0,0,0-.58A5.48,5.48,0,0,0,23,22a5.13,5.13,0,0,0-4.1-2.24A.72.72,0,0,0,18.14,20.42Z"/><path class="cls-1" d="M19.47,18.07c3.05.19,4.49,1.4,5.31,2.71a6.84,6.84,0,0,1,.92,3.44c0,.19,0,.27,0,.27a.72.72,0,0,0,.66.77h.06a.72.72,0,0,0,.71-.66h0s0-.16,0-.39A8.26,8.26,0,0,0,26,20c-1-1.69-3-3.23-6.46-3.4a.72.72,0,1,0-.08,1.43Z"/><path class="cls-1" d="M87.85,20.49a2.64,2.64,0,0,1,.3.18,3.55,3.55,0,0,1,1.76,2.9,4.63,4.63,0,0,1-.6,2.14.72.72,0,0,0,1.27.67,6,6,0,0,0,.76-2.8,5.14,5.14,0,0,0-2.89-4.38.72.72,0,1,0-.61,1.3Z"/><path class="cls-1" d="M90.33,18.12h0a5,5,0,0,1,.47.3,6,6,0,0,1,2.64,4.71,7.48,7.48,0,0,1-1.13,3.72.72.72,0,1,0,1.24.71,8.88,8.88,0,0,0,1.32-4.43A7.59,7.59,0,0,0,91,16.86a.72.72,0,1,0-.68,1.26Z"/><path class="cls-1" d="M76.08,21.2a.72.72,0,1,0-.13-1.43A5.13,5.13,0,0,0,71.84,22a5.45,5.45,0,0,0-.79,2.89,4.8,4.8,0,0,0,0,.58.72.72,0,0,0,.71.62h.1a.72.72,0,0,0,.61-.81h0a2.79,2.79,0,0,1,0-.38,4,4,0,0,1,.56-2.12A3.68,3.68,0,0,1,76.08,21.2Z"/><path class="cls-1" d="M67.73,24.22c0,.23,0,.38,0,.39a.72.72,0,0,0,.71.65h.06a.71.71,0,0,0,.65-.77s0-.08,0-.27a6.84,6.84,0,0,1,.92-3.44c.82-1.31,2.26-2.53,5.32-2.71a.72.72,0,0,0-.08-1.43c-3.43.18-5.45,1.71-6.46,3.4A8.24,8.24,0,0,0,67.73,24.22Z"/><text class="cls-2" transform="translate(31.97 83.82)">N<tspan class="cls-3" x="14.48" y="0">A</tspan><tspan x="27.85" y="0">ME SURN</tspan><tspan class="cls-4" x="112.42" y="0">A</tspan><tspan x="125.79" y="0">ME</tspan></text></g></g></svg>