<svg xmlns="http://www.w3.org/2000/svg" viewBox="0 0 175.73 170"><defs><style>.cls-1{fill:#d7e0e5;}.cls-2{font-size:22px;font-family:Roboto-Regular, Roboto Regular;}.cls-3{letter-spacing:0em;}.cls-4{letter-spacing:0em;}</style></defs><title>Asset 11</title><g id="Layer_2" data-name="Layer 2"><g id="pages"><path class="cls-1" d="M6.52,52.35A39.15,39.15,0,0,0,15.89,57c.9.31,1.75.58,2.57.81V161.93a8.07,8.07,0,0,0,16.14,0V103h3v58.93a8.07,8.07,0,0,0,16.14,0V64a28.24,28.24,0,0,1,1.16,2.77c1.84,5.1,3.39,13.47,3.38,26.53,0,3.6-.12,7.55-.37,11.9a5.22,5.22,0,0,0,4.91,5.52h.31a5.22,5.22,0,0,0,5.21-4.92c.26-4.53.39-8.68.39-12.51,0-19.7-3.17-30.61-7.46-37.16a18.43,18.43,0,0,0-7-6.5A12.46,12.46,0,0,0,49,48.28l-.3,0H23.55a22.27,22.27,0,0,1-3.07-.76A31.71,31.71,0,0,1,12.86,44a9.33,9.33,0,0,1-2.16-1.86,2.52,2.52,0,0,1-.21-.31,4.17,4.17,0,0,1,.73-.88c1.25-1.3,4.46-3.24,10-5.35a15.94,15.94,0,0,1-.19-11,61,61,0,0,0-13.36,6,20,20,0,0,0-5.43,4.86A10.82,10.82,0,0,0,0,41.87a10.38,10.38,0,0,0,1.29,4.94A16.74,16.74,0,0,0,6.52,52.35Z"/><circle class="cls-1" cx="36.11" cy="29.86" r="14.69"/><path class="cls-1" d="M58,20.91a3.47,3.47,0,0,0,1.93-.25,1.8,1.8,0,0,0,1.27-1.29q.22-1.1-1-1.44a2.2,2.2,0,0,0-1-.7,1.59,1.59,0,0,0-1.06.09,3,3,0,0,1-.38.18c-.85.36-1.31.75-1.4,1.18a1.68,1.68,0,0,0,.34,1.42A2.23,2.23,0,0,0,58,20.91Z"/><path class="cls-1" d="M59.7,15.19a3.16,3.16,0,0,0,1.77,0,1.64,1.64,0,0,0,.86-.94A15,15,0,0,1,63.46,12q3.74-.5,5-.8A4.85,4.85,0,0,0,70.75,9.8a6.37,6.37,0,0,0,1.52-3.22h0a7.18,7.18,0,0,0,.12-2.85,5.52,5.52,0,0,0-1.55-2.29A4,4,0,0,0,68.48.35L66.85.07a4.45,4.45,0,0,0-2.34.22h0A7.28,7.28,0,0,0,62.14,1.5,2.85,2.85,0,0,0,61,3a1.13,1.13,0,0,0,1,1.49q2,.4,2.4-.8a1.34,1.34,0,0,1,.76-.61,3.92,3.92,0,0,1,2.12,0,3.41,3.41,0,0,1,1,.38,1.67,1.67,0,0,1,.62.51,3,3,0,0,1,.19,1.09,5.39,5.39,0,0,1,0,1.32,3.12,3.12,0,0,1-.61,1.28,1.78,1.78,0,0,1-1,.73l-2,.36q-1.92.33-2.63.54a8.45,8.45,0,0,0-1.6.69Q60,11.58,59.67,12.1a3.62,3.62,0,0,0-.45,1.18,3.2,3.2,0,0,0,0,1.22C59.27,14.91,59.44,15.14,59.7,15.19Z"/><text class="cls-2" transform="translate(21.43 83.82)">N<tspan class="cls-3" x="14.48" y="0">A</tspan><tspan x="27.85" y="0">ME SURN</tspan><tspan class="cls-4" x="112.42" y="0">A</tspan><tspan x="125.79" y="0">ME</tspan></text></g></g></svg>