<svg xmlns="http://www.w3.org/2000/svg" viewBox="0 0 185.42 170"><defs><style>.cls-1{fill:#d7e0e5;}.cls-2{font-size:22px;font-family:Roboto-Regular, Roboto Regular;}.cls-3{letter-spacing:0em;}.cls-4{letter-spacing:0em;}</style></defs><title>Asset 12</title><g id="Layer_2" data-name="Layer 2"><g id="pages"><path class="cls-1" d="M59.09,27.86c0-.39.05-.78.05-1.18A15.21,15.21,0,1,0,52.91,39a91.39,91.39,0,0,0,4.55-8.87A6.73,6.73,0,0,1,59.09,27.86Z"/><path class="cls-1" d="M68.92,28.69a6.77,6.77,0,0,1,.86,7c-4.53,10-9.21,17.21-14.32,22.07-4.74,4.55-10.3,7.05-15.65,7.05h-.1a19.63,19.63,0,0,1-8.6-2,25.21,25.21,0,0,1-5.93-4A35.07,35.07,0,0,1,21,54.14v107.5a8.36,8.36,0,0,0,16.71,0v-61h3.13v61a8.36,8.36,0,0,0,16.71,0V69.94A7.1,7.1,0,0,0,59,70.1h.05a7.17,7.17,0,0,0,4.07-1.34,11.45,11.45,0,0,0,3.6-4.66,49.92,49.92,0,0,0,3.21-10.8c1-4.77,1.93-10.9,2.84-18.81A5.4,5.4,0,0,0,68.92,28.69Z"/><path class="cls-1" d="M81.12,7a5.81,5.81,0,0,0-6.25-.42A5.81,5.81,0,0,0,72,1c-3.41-2.23-16.1-2.29-6.51,19.7C89.52,20.89,84.5,9.23,81.12,7Z"/><path class="cls-1" d="M11.24,11.4a5.81,5.81,0,0,0-2.48,5.75,5.81,5.81,0,0,0-6.21.8C-.7,20.43-5,32.37,18.95,30.67,27.17,8.13,14.51,9,11.24,11.4Z"/><path class="cls-1" d="M21.36,52.25h0a28.29,28.29,0,0,0,4.73,5.46,24.12,24.12,0,0,0,5.61,3.82,18.37,18.37,0,0,0,8,1.89h.1c4.82,0,10-2.17,14.72-6.68s9.38-11.41,14-21.65a5.41,5.41,0,1,0-9.86-4.45c-4.25,9.43-8.3,15.14-11.6,18.25s-5.62,3.68-7.38,3.71a7.56,7.56,0,0,1-3.31-.81,13.59,13.59,0,0,1-3.18-2.22h2.12a10.29,10.29,0,0,0,1.65,1,6.29,6.29,0,0,0,2.73.68c1.34,0,3.31-.43,6.46-3.35a30.59,30.59,0,0,0,3.46-4H26a5.41,5.41,0,0,0-4.65,8.29Z"/><text class="cls-2" transform="translate(31.11 85)">N<tspan class="cls-3" x="14.48" y="0">A</tspan><tspan x="27.85" y="0">ME SURN</tspan><tspan class="cls-4" x="112.42" y="0">A</tspan><tspan x="125.79" y="0">ME</tspan></text></g></g></svg>